<?xml version="1.0" encoding="UTF-8" standalone="no"?>
<svg width="142px" height="20px" viewBox="0 0 142 20" version="1.1" xmlns="http://www.w3.org/2000/svg" xmlns:xlink="http://www.w3.org/1999/xlink" xmlns:sketch="http://www.bohemiancoding.com/sketch/ns">
    <!-- Generator: Sketch 3.3.2 (12043) - http://www.bohemiancoding.com/sketch -->
    <title>Group</title>
    <desc>Created with Sketch.</desc>
    <defs></defs>
    <g id="Page-1" stroke="none" stroke-width="1" fill="none" fill-rule="evenodd" sketch:type="MSPage">
        <g id="Desktop-HD-Copy-8" sketch:type="MSArtboardGroup" transform="translate(-20.000000, -19.000000)" fill="#505284">
            <g id="Group" sketch:type="MSLayerGroup" transform="translate(20.000000, 19.000000)">
                <path d="M60.7657212,12.4343396 L60.7657212,0.60490566 L64.0907292,0.60490566 L64.0907292,19.7366038 C63.8253834,19.7513208 63.5817373,19.7645283 63.2832708,19.7811321 C59.3122198,15.8449057 55.3305094,11.8981132 51.2109866,7.81509434 L51.2109866,19.5509434 L47.8307775,19.5509434 L47.8307775,0.444150943 C48.1562735,0.42754717 48.4882413,0.410943396 48.8293458,0.393584906 C52.7550938,4.44339623 56.6614263,8.47358491 60.5677587,12.5033962 C60.6336193,12.4803774 60.6994799,12.4573585 60.7657212,12.4343396 L60.7657212,12.4343396 Z M49.6901019,4.69811321 C49.770429,4.65849057 49.850756,4.61886792 49.9310831,4.57924528 C54.1792815,8.77811321 58.4274799,12.9773585 62.6752976,17.1762264 C62.7403968,17.1520755 62.8051153,17.1279245 62.8702145,17.1037736 L62.8702145,16.1135849 L62.8702145,5.36226415 C62.8702145,4.41924528 62.8785898,3.47584906 62.8637426,2.53320755 C62.859555,2.28150943 62.9806166,1.94716981 62.5519517,1.83584906 C62.1788686,2.11660377 62.3387614,2.52566038 62.3376193,2.86981132 C62.3250563,6.86226415 62.3307668,10.854717 62.3273405,14.8471698 C62.3269598,15.1667925 62.2949812,15.4860377 62.266429,16.0120755 C57.8674745,11.6622642 53.6379303,7.48 49.2747614,3.16528302 C49.2458284,3.64075472 49.2153727,3.91132075 49.2153727,4.18188679 C49.2123271,8.58301887 49.2130885,12.9841509 49.2134692,17.385283 C49.2134692,17.5739623 49.1879625,17.7701887 49.2328847,17.9483019 C49.2690509,18.0920755 49.3939196,18.2132075 49.4883324,18.3577358 C49.5998767,18.2573585 49.6843914,18.2166038 49.6847721,18.1758491 C49.6904826,13.6830189 49.6901019,9.19056604 49.6901019,4.69811321 L49.6901019,4.69811321 Z" id="Fill-1" sketch:type="MSShapeGroup"></path>
                <path d="M116.235185,1.73433962 C115.829743,2.72 115.453233,3.6354717 115.109083,4.47169811 C113.780831,4.12264151 112.548134,3.71169811 111.281936,3.48754717 C109.699378,3.20716981 108.121008,3.37207547 106.629056,4.02037736 C103.850729,5.22716981 102.446338,7.79811321 102.789727,11.0101887 C103.083244,13.7566038 105.257024,16.0486792 108.066949,16.6026415 C110.089592,17.0015094 112.027721,16.650566 113.998971,16.0396226 L113.998971,12.6573585 L108.754107,12.6573585 L108.754107,9.65698113 L117.376134,9.65698113 C117.381464,12.3430189 117.378038,15.025283 117.377657,17.7479245 C116.128209,18.6264151 114.763029,19.170566 113.313716,19.5256604 C110.463437,20.2245283 107.642472,20.1328302 104.938,18.9701887 C97.9628686,15.970566 96.9650617,6.71584906 103.114842,2.24075472 C105.446611,0.544528302 108.095121,-0.06 110.929791,0.270943396 C112.270225,0.427169811 113.586295,0.813584906 114.900842,1.14415094 C115.347019,1.25622642 115.755507,1.51698113 116.235185,1.73433962 L116.235185,1.73433962 Z M114.537276,2.48641509 C112.728584,1.74566038 110.916466,1.41433962 109.016027,1.50150943 C104.862622,1.69207547 101.215164,4.0645283 100.572166,8.78943396 C99.9634316,13.2630189 102.432633,16.850566 106.24874,18.1241509 C108.322397,18.8158491 110.420418,18.8015094 112.533668,18.3833962 C113.714971,18.149434 114.864295,17.814717 115.874284,17.1716981 L115.874284,10.9754717 L110.037437,10.9754717 C109.960917,11.5773585 110.375496,11.4535849 110.65607,11.4562264 C111.95615,11.4683019 113.256611,11.4581132 114.557072,11.465283 C114.826606,11.4667925 115.09652,11.5075472 115.40222,11.5335849 L115.40222,14.2686792 L115.40222,16.8218868 C113.668525,17.7501887 111.793973,18.1403774 109.406622,18.114717 C104.892316,18.0660377 100.538665,14.8750943 101.089534,9.12943396 C101.368204,6.22264151 102.846831,4.06301887 105.572241,2.83471698 C107.481437,1.97433962 109.496086,1.86641509 111.532434,2.19018868 C112.484938,2.34150943 113.413458,2.64075472 114.351496,2.87283019 C114.40822,2.75471698 114.448574,2.6709434 114.537276,2.48641509 L114.537276,2.48641509 Z" id="Fill-2" sketch:type="MSShapeGroup"></path>
                <path d="M39.2818445,15.105283 L30.0937212,15.105283 L30.0937212,19.5630189 L26.6655442,19.5630189 C26.654504,19.325283 26.6366113,19.1135849 26.636992,18.9018868 C26.638134,15.3192453 26.6072976,11.7362264 26.6666863,8.15471698 C26.6838177,7.13245283 26.8654102,6.08792453 27.1425576,5.10037736 C27.8266702,2.66264151 29.456815,1.12490566 31.9454316,0.508301887 C33.9288633,0.0166037736 35.9141984,0.0562264151 37.8530885,0.672830189 C40.4993137,1.51471698 41.8991367,3.46226415 42.4264021,6.07849057 C42.5802038,6.84301887 42.646445,7.63584906 42.6517748,8.41622642 C42.6769008,11.9358491 42.666622,15.4554717 42.6662413,18.9750943 C42.6662413,19.1577358 42.6430188,19.3407547 42.6274102,19.5709434 L39.2818445,19.5709434 L39.2818445,15.105283 L39.2818445,15.105283 Z M40.6717694,13.9909434 L40.6717694,15.5709434 C40.6717694,16.0422642 40.6348418,16.5169811 40.6828097,16.9833962 C40.7284933,17.4275472 40.4479196,17.9592453 41.1023378,18.4683019 C41.146118,18.0271698 41.1986542,17.7418868 41.1994155,17.4558491 C41.205126,14.5037736 41.2077909,11.5516981 41.1982735,8.59962264 C41.19637,8.00415094 41.1678177,7.40566038 41.104622,6.81320755 C40.8213834,4.15056604 39.2327346,2.2509434 36.7304129,1.61018868 C35.1288204,1.20037736 33.5287507,1.26037736 31.958756,1.7890566 C30.2543753,2.36301887 29.084874,3.51811321 28.5667453,5.20641509 C28.2758928,6.15358491 28.1186649,7.17283019 28.09963,8.16301887 C28.0390992,11.3339623 28.0687936,14.5064151 28.0733619,17.6781132 C28.0737426,17.8988679 28.1525469,18.1196226 28.195185,18.3407547 C28.2698016,18.3460377 28.3444182,18.3516981 28.4194155,18.3569811 C28.4826113,18.1826415 28.5937748,18.0101887 28.6002466,17.8339623 C28.6230885,17.2067925 28.6109062,16.5781132 28.6112869,15.9501887 C28.6116676,15.3041509 28.6112869,14.6584906 28.6112869,13.9909434 L40.6717694,13.9909434 L40.6717694,13.9909434 Z" id="Fill-3" sketch:type="MSShapeGroup"></path>
                <path d="M131.678161,19.9132075 C126.196885,19.9396226 122.297786,16.6445283 121.340332,12.0966038 C120.194815,6.65320755 123.924504,1.25207547 129.483062,0.370566038 C132.071802,-0.0396226415 134.550901,0.250188679 136.827469,1.55584906 C140.240418,3.51358491 141.747217,6.53396226 141.690493,10.4060377 C141.632247,14.3735849 139.003534,18.6260377 133.550429,19.7233962 C132.902483,19.8535849 132.22941,19.86 131.678161,19.9132075 L131.678161,19.9132075 Z M140.201587,9.75471698 C139.992584,4.58188679 135.940826,1.22792453 131.100263,1.40150943 C125.919357,1.58679245 122.282177,5.76641509 122.722263,10.9166038 C123.095727,15.2849057 126.779351,18.9690566 131.752397,18.7928302 C136.929877,18.6090566 140.379373,14.4924528 140.201587,9.75471698 L140.201587,9.75471698 Z" id="Fill-4" sketch:type="MSShapeGroup"></path>
                <path d="M69.1635174,0.538490566 C71.0517748,0.538490566 72.887496,0.510943396 74.7220751,0.547924528 C76.0815442,0.57509434 77.472992,0.523396226 78.7913458,0.791320755 C82.7616354,1.59849057 85.4721984,3.88301887 86.4106166,7.88981132 C87.6147614,13.0309434 84.5292118,17.9445283 79.3658177,19.2328302 C78.7232011,19.3932075 78.0611689,19.5645283 77.4059893,19.5735849 C74.6817212,19.6116981 71.9566917,19.589434 69.1635174,19.589434 L69.1635174,0.538490566 L69.1635174,0.538490566 Z M70.5069973,18.3811321 C72.5056568,18.3811321 74.4316032,18.405283 76.3560268,18.3686792 C77.0785898,18.3550943 77.8106702,18.2562264 78.517244,18.1011321 C83.3178338,17.0486792 86.0748418,12.6 84.8733619,7.88150943 C84.0792279,4.76264151 81.227807,2.23962264 77.7923968,1.91773585 C75.4362627,1.69698113 73.0496729,1.79811321 70.6767882,1.76113208 C70.6292011,1.76037736 70.5804718,1.82943396 70.5069973,1.88566038 L70.5069973,18.3811321 L70.5069973,18.3811321 Z" id="Fill-5" sketch:type="MSShapeGroup"></path>
                <path d="M3.4209437,14.1471698 L3.4209437,19.5728302 L0.0681447721,19.5728302 L0.0681447721,0.66754717 C0.120680965,0.632830189 0.170552279,0.570566038 0.220423592,0.570566038 C2.53544236,0.570188679 4.85236461,0.523018868 7.1650992,0.599245283 C8.53903485,0.644528302 9.8630992,1.04943396 10.9732118,1.89509434 C11.5423539,2.32867925 12.0943646,2.84 12.4971421,3.42264151 C14.2795657,6.00188679 13.8771689,10.0913208 11.6786434,12.1071698 C10.4173941,13.2641509 8.8550134,13.7607547 7.1909866,13.9483019 C6.2483807,14.054717 5.2924504,14.049434 4.34261126,14.0954717 C4.06546381,14.1086792 3.78831635,14.1264151 3.4209437,14.1471698 L3.4209437,14.1471698 Z M1.38878284,1.71886792 L1.38878284,2.54792453 C1.38878284,7.51584906 1.38878284,12.4837736 1.38992493,17.4516981 C1.38992493,17.6716981 1.37127078,17.9 1.42685255,18.1071698 C1.45464343,18.2098113 1.63090617,18.2735849 1.9358445,18.5 L1.9358445,15.7162264 L1.9358445,13.0056604 C2.34775871,13.0056604 2.65688472,13.0139623 2.96524933,13.0041509 C4.389437,12.9584906 5.82580697,13.0098113 7.23476676,12.8377358 C10.4314799,12.4475472 12.1179678,10.4811321 12.1354799,7.29660377 C12.1507078,4.45660377 10.6439088,2.50226415 7.90898123,1.94981132 C5.7835496,1.52 3.62652011,1.78679245 1.38878284,1.71886792 L1.38878284,1.71886792 Z" id="Fill-6" sketch:type="MSShapeGroup"></path>
                <path d="M21.057496,19.5996226 L17.7777909,19.5996226 L17.7777909,0.563773585 C18.8254692,0.50754717 19.9119786,0.550566038 21.057496,0.543773585 L21.057496,19.5996226 L21.057496,19.5996226 Z M19.3310349,18.3279245 C19.4246863,18.3211321 19.5187185,18.3143396 19.61237,18.3075472 C19.6302627,17.9833962 19.6633834,17.6596226 19.6637641,17.3358491 C19.6679517,14.3860377 19.666429,11.4358491 19.666429,8.48603774 C19.666429,6.57169811 19.6721394,4.65735849 19.6599571,2.74301887 C19.6584343,2.43811321 19.7867292,2.06603774 19.3557802,1.80113208 C19.274311,1.94339623 19.1711421,2.03886792 19.1711421,2.13471698 C19.1631475,7.43735849 19.1627668,12.7403774 19.1703807,18.0430189 C19.1703807,18.1381132 19.2750724,18.2328302 19.3310349,18.3279245 L19.3310349,18.3279245 Z" id="Fill-7" sketch:type="MSShapeGroup"></path>
                <path d="M91.2412815,0.584528302 L94.5346917,0.584528302 L94.5346917,19.5728302 L91.2412815,19.5728302 L91.2412815,0.584528302 L91.2412815,0.584528302 Z M93.1318231,1.87924528 C93.0001019,1.86792453 92.8683807,1.85622642 92.7366595,1.8445283 C92.6947828,2.1490566 92.6167399,2.45358491 92.6163592,2.75811321 C92.6087453,7.65358491 92.6110295,12.549434 92.6114102,17.445283 C92.6114102,17.6018868 92.5885684,17.7656604 92.6266381,17.9139623 C92.6647078,18.0630189 92.7648311,18.1966038 92.925866,18.5064151 C93.0339839,18.1596226 93.126874,18.0003774 93.1272547,17.8407547 C93.1382949,12.5203774 93.1417212,7.19962264 93.1318231,1.87924528 L93.1318231,1.87924528 Z" id="Fill-8" sketch:type="MSShapeGroup"></path>
                <path d="M40.7448633,13.3830189 L28.7833619,13.3830189 C28.7228311,13.3098113 28.6493566,13.2618868 28.6497373,13.214717 C28.6668686,11.1449057 28.575882,9.06641509 28.7414853,7.00792453 C28.9778981,4.0690566 30.6563914,2.4090566 33.5843324,1.96754717 C34.6598016,1.80528302 35.7326059,1.88377358 36.7791421,2.19358491 C38.9624397,2.84 40.2145523,4.39018868 40.4688579,6.52981132 C40.7338231,8.75886792 40.6645362,11.0271698 40.7448633,13.3830189 L40.7448633,13.3830189 Z M39.1847668,12.3535849 C39.1847668,10.6135849 39.2978338,8.97283019 39.1584987,7.35358491 C38.9422627,4.84641509 37.5279732,3.47622642 35.0911314,3.31735849 C32.6234531,3.15660377 30.8817641,4.15396226 30.2795013,6.73471698 C30.1104718,7.46 30.0925791,8.22754717 30.070118,8.97773585 C30.0369973,10.0958491 30.0617426,11.2158491 30.0617426,12.3535849 L39.1847668,12.3535849 L39.1847668,12.3535849 Z" id="Fill-9" sketch:type="MSShapeGroup"></path>
                <path d="M139.676987,10.0769811 C139.676987,14.6377358 136.083206,18.2411321 131.503802,18.2720755 C126.918686,18.3030189 123.194327,14.6283019 123.206509,10.0856604 C123.219072,5.46641509 126.831887,1.90754717 131.493903,1.92226415 C136.110236,1.93660377 139.677367,5.49132075 139.676987,10.0769811 L139.676987,10.0769811 Z M138.059024,10.1943396 C138.046461,9.91169811 138.046461,9.62830189 138.01867,9.34716981 C137.779212,6.9245283 136.66415,5.03320755 134.436692,3.94150943 C132.123196,2.80754717 129.813507,2.98339623 127.670563,4.39622642 C125.117989,6.07886792 124.121324,9.71471698 125.300724,12.74 C126.517812,15.8615094 129.847389,17.5954717 133.077603,16.7607547 C136.262134,15.9373585 138.085673,13.0924528 138.059024,10.1943396 L138.059024,10.1943396 Z" id="Fill-10" sketch:type="MSShapeGroup"></path>
                <path d="M71.0822306,2.19471698 C73.4067668,2.28226415 75.6753405,2.17698113 77.8814799,2.49584906 C81.0660107,2.95584906 83.3996836,4.74867925 84.2829008,7.90566038 C85.5780322,12.5335849 82.8937373,16.4366038 78.4955442,17.5422642 C77.9774155,17.6724528 77.4387292,17.7841509 76.9076568,17.7924528 C74.9843753,17.8218868 73.0603324,17.8041509 71.0822306,17.8041509 L71.0822306,2.19471698 L71.0822306,2.19471698 Z M72.5627614,16.4320755 C74.2385898,16.4320755 75.8561716,16.5550943 77.447866,16.4056604 C80.4843056,16.1211321 82.8038928,13.5958491 82.999571,10.6566038 C83.2249437,7.27471698 81.2639732,4.56 78.1544397,3.82981132 C76.3236676,3.39962264 74.4567292,3.65245283 72.5627614,3.60867925 L72.5627614,16.4320755 L72.5627614,16.4320755 Z" id="Fill-11" sketch:type="MSShapeGroup"></path>
                <path d="M1.98571582,12.4528302 L1.98571582,2.34830189 C2.21679893,2.32490566 2.45701877,2.27396226 2.69571582,2.28037736 C4.27446649,2.32188679 5.86920643,2.25283019 7.42816086,2.45132075 C10.6956836,2.86792453 11.7837158,5.30490566 11.5503485,7.86113208 C11.3154584,10.4286792 9.9137319,11.8588679 7.31128686,12.2818868 C6.65915282,12.3875472 5.99217158,12.4301887 5.3309008,12.4456604 C4.23258981,12.4720755 3.13313673,12.4528302 1.98571582,12.4528302 L1.98571582,12.4528302 Z M3.46434316,11.174717 C4.74424665,11.0950943 5.92021984,11.1037736 7.06802145,10.9309434 C8.80628418,10.6690566 9.83302413,9.42188679 9.90383378,7.67433962 C9.91525469,7.39207547 9.91830027,7.10830189 9.90040751,6.82679245 C9.80256836,5.28415094 8.87899732,4.17056604 7.36458445,3.80754717 C6.09191421,3.50301887 4.8017319,3.58943396 3.46434316,3.64264151 L3.46434316,11.174717 L3.46434316,11.174717 Z" id="Fill-12" sketch:type="MSShapeGroup"></path>
            </g>
        </g>
    </g>
</svg>