<?xml version="1.0" encoding="UTF-8" standalone="no"?>
<svg width="214px" height="261px" viewBox="0 0 214 261" version="1.1" xmlns="http://www.w3.org/2000/svg" xmlns:xlink="http://www.w3.org/1999/xlink" xmlns:sketch="http://www.bohemiancoding.com/sketch/ns">
    <!-- Generator: Sketch 3.3.2 (12043) - http://www.bohemiancoding.com/sketch -->
    <title>Piano</title>
    <desc>Created with Sketch.</desc>
    <defs>
        <path id="path-1" d="M632.459375,46.6831436 L632.459375,375.316856 L22.5406245,375.316851 L632.459375,46.6831436 Z"></path>
    </defs>
    <g id="Page-1" stroke="none" stroke-width="1" fill="none" fill-rule="evenodd" sketch:type="MSPage">
        <g id="Desktop-HD-Copy-8" sketch:type="MSArtboardGroup" transform="translate(-306.000000, -169.000000)">
            <g id="Piano" sketch:type="MSLayerGroup" transform="translate(222.000000, -3.000000)">
                <g id="Type-something-+-Imported-Layers-Copy-+-Rectangle-5" transform="translate(190.994505, 302.543388) rotate(-270.000000) translate(-190.994505, -302.543388) translate(60.073018, 195.438993)" stroke="#505284" stroke-width="1.11000001" sketch:type="MSShapeGroup" stroke-dasharray="7,5">
                    <path d="M33.4496795,216.564021 L24.6371458,216.564021 L24.6371458,207.433969 C24.6525996,180.256138 24.6835072,153.082168 24.6835072,125.908197 C24.6796437,95.7114652 25.1625752,65.5031518 24.501925,35.3180013 C23.7408249,0.562033775 52.3458227,-23.9945262 83.7634135,-23.6161984 C93.7890711,-23.4965233 103.911315,-23.8401067 113.817206,-22.6047507 C141.197489,-19.1920799 157.929572,5.51683221 162.357615,32.5500319 C164.825183,47.6145323 166.817025,59.6010922 175.413206,71.7577668 C182.027435,81.1155881 188.623273,85.3745397 201.536881,88.3881207 C214.450489,91.4017017 220.247578,96.4372368 226.077527,105.289334 C234.414856,117.944012 236.991779,132.316606 237.111546,147.148599 C237.293128,169.535565 237.142453,191.926391 237.119273,214.313357 C237.119273,214.757313 236.972462,215.201269 236.81406,216.089181 C234.635073,216.23974 232.398135,216.39802 229.546907,216.594905 L229.546907,237.360467 L33.4496795,237.360467 L33.4496795,216.564021 Z" id="Imported-Layers-Copy" transform="translate(130.843506, 106.869978) rotate(-90.000000) translate(-130.843506, -106.869978) "></path>
                </g>
                <g id="Imported-Layers-+-Rectangle-5-Copy" transform="translate(211.500000, 328.500000) rotate(-270.000000) translate(-211.500000, -328.500000) translate(-116.000000, 118.000000)">
                    <mask id="mask-2" sketch:name="Mask" fill="white">
                        <use xlink:href="#path-1"></use>
                    </mask>
                    <use id="Mask" sketch:type="MSShapeGroup" transform="translate(327.500000, 211.000000) rotate(-9.000000) translate(-327.500000, -211.000000) " xlink:href="#path-1"></use>
                    <g mask="url(#mask-2)" id="Imported-Layers" fill="#505284" sketch:type="MSShapeGroup">
                        <g transform="translate(170.621901, 123.901099)">
                            <path d="M33.4496795,216.564021 L24.6371458,216.564021 L24.6371458,207.433969 C24.6525996,180.256138 24.6835072,153.082168 24.6835072,125.908197 C24.6796437,95.7114652 25.1625752,65.5031518 24.501925,35.3180013 C23.7408249,0.562033775 52.3458227,-23.9945262 83.7634135,-23.6161984 C93.7890711,-23.4965233 103.911315,-23.8401067 113.817206,-22.6047507 C141.197489,-19.1920799 157.929572,5.51683221 162.357615,32.5500319 C164.825183,47.6145323 166.817025,59.6010922 175.413206,71.7577668 C182.027435,81.1155881 188.623273,85.3745397 201.536881,88.3881207 C214.450489,91.4017017 220.247578,96.4372368 226.077527,105.289334 C234.414856,117.944012 236.991779,132.316606 237.111546,147.148599 C237.293128,169.535565 237.142453,191.926391 237.119273,214.313357 C237.119273,214.757313 236.972462,215.201269 236.81406,216.089181 C234.635073,216.23974 232.398135,216.39802 229.546907,216.594905 L229.546907,237.360467 L33.4496795,237.360467 L33.4496795,216.564021 Z M41.1611295,229.095163 L52.7592121,229.095163 L52.7592121,213.687958 C51.2254217,213.533539 49.9157115,213.402282 48.0805718,213.216979 L48.0805718,185.240027 L41.1611295,185.240027 L41.1611295,229.095163 L41.1611295,229.095163 Z M184.085669,185.035421 L184.085669,228.944604 L195.560121,228.944604 L195.560121,213.680237 C194.045648,213.529678 192.739801,213.398422 190.896934,213.213118 L190.896934,185.035421 L184.085669,185.035421 L184.085669,185.035421 Z M93.197963,185.035421 L93.197963,228.963907 L104.72264,228.963907 L104.72264,213.904146 C103.096127,213.556702 101.67824,213.251723 99.901052,212.873395 L99.901052,185.035421 L93.197963,185.035421 L93.197963,185.035421 Z M132.187919,185.050863 L132.187919,229.091303 L143.61601,229.091303 L143.61601,213.680237 C142.089947,213.525818 140.7841,213.390701 138.956687,213.205397 L138.956687,185.050863 L132.187919,185.050863 L132.187919,185.050863 Z M221.410477,229.041116 L221.410477,185.193701 L214.803975,185.193701 L214.803975,213.159072 C212.91861,213.421585 211.465952,213.62619 209.963069,213.834657 L209.963069,229.041116 L221.410477,229.041116 L221.410477,229.041116 Z M182.482336,229.195536 L182.482336,185.147375 L175.914468,185.147375 L175.914468,213.116606 C174.03683,213.38684 172.584172,213.599167 171.170149,213.803773 L171.170149,229.195536 L182.482336,229.195536 L182.482336,229.195536 Z M130.642539,229.106745 L130.642539,185.081747 L124.016719,185.081747 L124.016719,213.062559 C121.953635,213.440887 120.508704,213.707261 119.141042,213.958192 L119.141042,229.106745 L130.642539,229.106745 L130.642539,229.106745 Z M91.5946305,229.160792 L91.5946305,185.166678 L85.0306257,185.166678 L85.0306257,213.105025 C83.1838957,213.394561 81.7389647,213.61847 80.3713027,213.834657 L80.3713027,229.160792 L91.5946305,229.160792 L91.5946305,229.160792 Z M112.959519,185.116491 C112.464998,185.077887 111.966612,185.039282 111.47209,185.004537 C110.552589,189.390051 111.186195,193.957007 111.078018,198.423591 C110.962115,203.318689 111.050974,208.217648 111.050974,213.089583 C109.080614,213.413864 107.635683,213.653214 106.171434,213.892564 L106.171434,228.98707 L117.730882,228.98707 L117.730882,213.873262 C116.150731,213.552841 114.72898,213.263305 112.959519,212.90814 L112.959519,185.116491 L112.959519,185.116491 Z M151.841299,185.066305 L150.199332,185.066305 L150.199332,213.06642 C148.178747,213.363677 146.729952,213.576004 145.196162,213.799912 L145.196162,229.052698 L156.566301,229.052698 L156.566301,213.776749 C154.978422,213.54126 153.672575,213.348235 151.841299,213.081862 L151.841299,185.066305 L151.841299,185.066305 Z M158.181224,213.757447 L158.181224,229.056558 L169.555226,229.056558 L169.555226,213.776749 C167.967347,213.54126 166.661501,213.344375 165.289975,213.135909 C164.513421,203.623668 165.803814,194.265846 164.555919,185.054724 C164.088442,185.062445 163.620964,185.070166 163.15735,185.077887 L163.15735,213.128188 C161.256531,213.367538 159.919777,213.537399 158.181224,213.757447 L158.181224,213.757447 Z M73.8034345,213.155211 L73.8034345,185.050863 C73.2895954,185.054724 72.7757563,185.054724 72.2657807,185.054724 L72.2657807,213.135909 C70.1756532,213.413864 68.8350354,213.595307 67.3321526,213.796052 L67.3321526,229.075861 L78.7022915,229.075861 L78.7022915,213.687958 C77.1607742,213.521957 75.8587909,213.379119 73.8034345,213.155211 L73.8034345,213.155211 Z M203.77382,185.074026 C203.217482,185.074026 202.657282,185.074026 202.100945,185.070166 L202.100945,213.081862 C200.061042,213.367538 198.608384,213.576004 197.086184,213.788331 L197.086184,229.064279 L208.494958,229.064279 L208.494958,213.78061 C206.922533,213.548981 205.616686,213.352096 203.77382,213.078001 L203.77382,185.074026 L203.77382,185.074026 Z M54.2659583,229.060419 L65.7172297,229.060419 L65.7172297,213.772889 C64.1486682,213.54126 62.8428215,213.348235 61.4597057,213.14363 C60.6676981,203.615947 61.9735448,194.246544 60.7604209,185.019979 C60.2581722,185.02384 59.75206,185.0277 59.2498112,185.031561 L59.2498112,213.135909 C57.1712741,213.417724 55.8306563,213.603028 54.2659583,213.815354 L54.2659583,229.060419 L54.2659583,229.060419 Z" transform="translate(130.843506, 106.869978) rotate(-90.000000) translate(-130.843506, -106.869978) "></path>
                        </g>
                    </g>
                </g>
            </g>
        </g>
    </g>
</svg>